# xmcd CD database file
#
# Track frame offsets:
#	150
#	20020
#	39730
#	52815
#	71018
#	89945
#	102418
#	119120
#	129650
#	141433
#	159890
#	172155
#
# Disc length: 2500 seconds
#
# Revision: 0
# Processed by: cddbd v1.5.2PL0 Copyright (c) Steve Scherf et al.
# Submitted via: CDex 1.70beta3
#
DISCID=b809c20c
DTITLE=SHEENA and THE ROKKETS - JAPANIK
DYEAR=2008
DGENRE=J-ROCK
TTITLE0=PLANET GUITAR
TTITLE1=JAPANIC
TTITLE2=I CAN'T GET ACROSS TO YOU
TTITLE3=EMPTY BED
TTITLE4=OH LONELY BOY
TTITLE5=MENU
TTITLE6=Katamino NECKLACE
TTITLE7=WHAT A WONDERFUL WORLD 
TTITLE8=DiPINTO HOP (Instrumental)
TTITLE9=MY WAY 
TTITLE10=JOHNNY B. GOODE
TTITLE11=POM POM JOKI
EXTD=YEAR: 2008
EXTT0=
EXTT1=
EXTT2=
EXTT3=
EXTT4=
EXTT5=
EXTT6=
EXTT7=
EXTT8=
EXTT9=
EXTT10=
EXTT11=
PLAYORDER=
